<svg version="1.2" xmlns="http://www.w3.org/2000/svg" viewBox="0 0 512 512" width="512" height="512">
	<title>GolfBallVector</title>
	<style>
		.s0 { fill: #000000;stroke: #000000;stroke-miterlimit:100;stroke-width: 43 } 
		.s1 { fill: #ff0000;stroke: #ff0000;stroke-miterlimit:100;stroke-width: 43 } 
	</style>
	<path id="Layer 1 copy" fill-rule="evenodd" class="s0" d="m258 467.9c-117.2 0-211.9-94.7-211.9-211.9 0-117.2 94.7-211.9 211.9-211.9 117.2 0 211.9 94.7 211.9 211.9 0 117.2-94.7 211.9-211.9 211.9z"/>
	<path id="Layer 1" fill-rule="evenodd" class="s1" d="m258 424.9c-93.4 0-168.9-75.5-168.9-168.9 0-93.4 75.5-168.9 168.9-168.9 93.4 0 168.9 75.5 168.9 168.9 0 93.4-75.5 168.9-168.9 168.9z"/>
	<path id="Background" fill-rule="evenodd" class="s0" d="m258 384c-70.8 0-128-57.2-128-128 0-70.8 57.2-128 128-128 70.8 0 128 57.2 128 128 0 70.8-57.2 128-128 128z"/>
</svg>